{
  "accessors": [
    {
      "bufferView": 2,
      "componentType": 5126,
      "count": 1903,
      "max": [
        68.32283020019531,
        101.2032241821289,
        17.98870277404785
      ],
      "min": [
        -89.73779296875,
        17.11730194091797,
        -17.228500366210938
      ],
      "type": "VEC3"
    },
    {
      "bufferView": 2,
      "byteOffset": 22836,
      "componentType": 5126,
      "count": 1903,
      "max": [
        0.9997634887695313,
        1.0,
        0.9999807476997375
      ],
      "min": [
        -0.9902227520942688,
        -0.9993746280670166,
        -0.9999807476997375
      ],
      "type": "VEC3"
    },
    {
      "bufferView": 1,
      "componentType": 5126,
      "count": 1903,
      "max": [
        1.0058590173721313,
        0.9968010187149048
      ],
      "min": [
        -0.008797000162303448,
        -0.0019529999699443579
      ],
      "type": "VEC2"
    },
    {
      "bufferView": 0,
      "componentType": 5125,
      "count": 6465,
      "type": "SCALAR"
    },
    {
      "bufferView": 2,
      "byteOffset": 45672,
      "componentType": 5126,
      "count": 2696,
      "max": [
        72.0840835571289,
        109.01065826416016,
        10.992400169372559
      ],
      "min": [
        40.922245025634766,
        75.97667694091797,
        -10.983699798583984
      ],
      "type": "VEC3"
    },
    {
      "bufferView": 2,
      "byteOffset": 78024,
      "componentType": 5126,
      "count": 2696,
      "max": [
        0.9992993474006653,
        0.9989737868309021,
        0.9994427561759949
      ],
      "min": [
        -0.9995653033256531,
        -0.9998067617416382,
        -0.999444842338562
      ],
      "type": "VEC3"
    },
    {
      "bufferView": 1,
      "byteOffset": 15224,
      "componentType": 5126,
      "count": 2696,
      "max": [
        0.9951170086860657,
        0.9987999796867371
      ],
      "min": [
        0.0067980000749230385,
        0.015625
      ],
      "type": "VEC2"
    },
    {
      "bufferView": 0,
      "byteOffset": 25860,
      "componentType": 5125,
      "count": 14193,
      "type": "SCALAR"
    },
    {
      "bufferView": 2,
      "byteOffset": 110376,
      "componentType": 5126,
      "count": 4099,
      "max": [
        55.34030532836914,
        92.99365234375,
        16.370075225830078
      ],
      "min": [
        -88.4775390625,
        -0.5733799934387207,
        -16.38087272644043
      ],
      "type": "VEC3"
    },
    {
      "bufferView": 2,
      "byteOffset": 159564,
      "componentType": 5126,
      "count": 4099,
      "max": [
        0.9979082345962524,
        1.0,
        0.9999287724494934
      ],
      "min": [
        -0.9992322325706482,
        -0.9998441338539124,
        -0.9999809265136719
      ],
      "type": "VEC3"
    },
    {
      "bufferView": 1,
      "byteOffset": 36792,
      "componentType": 5126,
      "count": 4099,
      "max": [
        0.9902340173721313,
        0.9882050156593323
      ],
      "min": [
        0.00929300021380186,
        0.0029299999587237835
      ],
      "type": "VEC2"
    },
    {
      "bufferView": 0,
      "byteOffset": 82632,
      "componentType": 5125,
      "count": 21702,
      "type": "SCALAR"
    },
    {
      "bufferView": 2,
      "byteOffset": 208752,
      "componentType": 5126,
      "count": 1456,
      "max": [
        69.72716522216797,
        89.20545196533203,
        5.190000057220459
      ],
      "min": [
        46.64011001586914,
        76.6426773071289,
        -5.164099216461182
      ],
      "type": "VEC3"
    },
    {
      "bufferView": 2,
      "byteOffset": 226224,
      "componentType": 5126,
      "count": 1456,
      "max": [
        0.9999827742576599,
        0.9996758103370667,
        0.9997491836547852
      ],
      "min": [
        -0.9964985847473145,
        -0.9992267489433289,
        -0.9997500777244568
      ],
      "type": "VEC3"
    },
    {
      "bufferView": 1,
      "byteOffset": 69584,
      "componentType": 5126,
      "count": 1456,
      "max": [
        0.9897459745407104,
        0.9963020086288452
      ],
      "min": [
        0.01219900045543909,
        0.012206999585032463
      ],
      "type": "VEC2"
    },
    {
      "bufferView": 0,
      "byteOffset": 169440,
      "componentType": 5125,
      "count": 5844,
      "type": "SCALAR"
    },
    {
      "bufferView": 2,
      "byteOffset": 243696,
      "componentType": 5126,
      "count": 74,
      "max": [
        59.33389663696289,
        92.71092987060547,
        4.576398849487305
      ],
      "min": [
        58.585079193115234,
        90.57699584960938,
        -4.567698955535889
      ],
      "type": "VEC3"
    },
    {
      "bufferView": 2,
      "byteOffset": 244584,
      "componentType": 5126,
      "count": 74,
      "max": [
        0.9870834946632385,
        0.7720009088516235,
        0.8553217053413391
      ],
      "min": [
        0.5052635669708252,
        -0.643789529800415,
        -0.8558390140533447
      ],
      "type": "VEC3"
    },
    {
      "bufferView": 1,
      "byteOffset": 81232,
      "componentType": 5126,
      "count": 74,
      "max": [
        0.9321290254592896,
        0.9326170086860657
      ],
      "min": [
        0.06738299876451492,
        0.06787099689245224
      ],
      "type": "VEC2"
    },
    {
      "bufferView": 0,
      "byteOffset": 192816,
      "componentType": 5125,
      "count": 216,
      "type": "SCALAR"
    },
    {
      "bufferView": 2,
      "byteOffset": 245472,
      "componentType": 5126,
      "count": 122,
      "max": [
        59.55037307739258,
        92.43877410888672,
        4.3545989990234375
      ],
      "min": [
        58.94403839111328,
        90.90034484863281,
        -4.327101230621338
      ],
      "type": "VEC3"
    },
    {
      "bufferView": 2,
      "byteOffset": 246936,
      "componentType": 5126,
      "count": 122,
      "max": [
        0.9871761202812195,
        0.9035652279853821,
        0.9200274348258972
      ],
      "min": [
        0.37694060802459717,
        -0.7497808337211609,
        -0.9203290343284607
      ],
      "type": "VEC3"
    },
    {
      "bufferView": 1,
      "byteOffset": 81824,
      "componentType": 5126,
      "count": 122,
      "max": [
        1.0,
        0.6528319716453552
      ],
      "min": [
        0.0,
        0.16699199378490448
      ],
      "type": "VEC2"
    },
    {
      "bufferView": 0,
      "byteOffset": 193680,
      "componentType": 5125,
      "count": 408,
      "type": "SCALAR"
    },
    {
      "bufferView": 2,
      "byteOffset": 248400,
      "componentType": 5126,
      "count": 7425,
      "max": [
        56.653072357177734,
        98.40538024902344,
        19.052600860595703
      ],
      "min": [
        -25.925724029541016,
        36.62186813354492,
        -18.124141693115234
      ],
      "type": "VEC3"
    },
    {
      "bufferView": 2,
      "byteOffset": 337500,
      "componentType": 5126,
      "count": 7425,
      "max": [
        1.0,
        1.0,
        1.0
      ],
      "min": [
        -1.0,
        -1.0,
        -1.0
      ],
      "type": "VEC3"
    },
    {
      "bufferView": 1,
      "byteOffset": 82800,
      "componentType": 5126,
      "count": 7425,
      "max": [
        0.9960939884185791,
        0.9958000183105469
      ],
      "min": [
        0.004397999960929155,
        0.004395000170916319
      ],
      "type": "VEC2"
    },
    {
      "bufferView": 0,
      "byteOffset": 195312,
      "componentType": 5125,
      "count": 26055,
      "type": "SCALAR"
    }
  ],
  "asset": {
    "extras": {
      "author": "Puppies4life (https://sketchfab.com/FlyingSou)",
      "license": "CC-BY-4.0 (http://creativecommons.org/licenses/by/4.0/)",
      "source": "https://sketchfab.com/3d-models/v2-cod-riley-e3eb3c6e9824433ca53cf9e0508b3ee4",
      "title": "[V2] COD: Riley"
    },
    "generator": "Sketchfab-14.68.0",
    "version": "2.0"
  },
  "bufferViews": [
    {
      "buffer": 0,
      "byteLength": 299532,
      "name": "floatBufferViews",
      "target": 34963
    },
    {
      "buffer": 0,
      "byteLength": 142200,
      "byteOffset": 299532,
      "byteStride": 8,
      "name": "floatBufferViews",
      "target": 34962
    },
    {
      "buffer": 0,
      "byteLength": 426600,
      "byteOffset": 441732,
      "byteStride": 12,
      "name": "floatBufferViews",
      "target": 34962
    }
  ],
  "buffers": [
    {
      "byteLength": 868332,
      "uri": "scene.bin"
    }
  ],
  "extensionsUsed": [
    "KHR_materials_specular"
  ],
  "images": [
    {
      "uri": "textures/mtl_dog_a_hair_a_body_baseColor.png"
    },
    {
      "uri": "textures/mtl_dog_a_head_a_baseColor.png"
    },
    {
      "uri": "textures/mtl_dog_a_body_a_baseColor.png"
    },
    {
      "uri": "textures/mtl_dog_a_mouth_a_baseColor.png"
    },
    {
      "uri": "textures/mtl_dog_a_eye_a_baseColor.png"
    },
    {
      "uri": "textures/mtl_dog_a_gear_a_cam_baseColor.png"
    }
  ],
  "materials": [
    {
      "alphaMode": "BLEND",
      "doubleSided": true,
      "extensions": {
        "KHR_materials_specular": {
          "specularColorFactor": [
            1.0,
            1.0,
            1.0
          ],
          "specularFactor": 0.014706
        }
      },
      "name": "mtl_dog_a_hair_a_body",
      "pbrMetallicRoughness": {
        "baseColorTexture": {
          "index": 0
        },
        "metallicFactor": 0.0,
        "roughnessFactor": 0.5
      }
    },
    {
      "doubleSided": true,
      "extensions": {
        "KHR_materials_specular": {
          "specularColorFactor": [
            1.0,
            1.0,
            1.0
          ],
          "specularFactor": 0.014706
        }
      },
      "name": "mtl_dog_a_head_a",
      "pbrMetallicRoughness": {
        "baseColorTexture": {
          "index": 1
        },
        "metallicFactor": 0.0,
        "roughnessFactor": 0.5
      }
    },
    {
      "doubleSided": true,
      "extensions": {
        "KHR_materials_specular": {
          "specularColorFactor": [
            1.0,
            1.0,
            1.0
          ],
          "specularFactor": 0.014706
        }
      },
      "name": "mtl_dog_a_body_a",
      "pbrMetallicRoughness": {
        "baseColorTexture": {
          "index": 2
        },
        "metallicFactor": 0.0,
        "roughnessFactor": 0.5
      }
    },
    {
      "doubleSided": true,
      "extensions": {
        "KHR_materials_specular": {
          "specularColorFactor": [
            1.0,
            1.0,
            1.0
          ],
          "specularFactor": 0.010666699174702246
        }
      },
      "name": "mtl_dog_a_mouth_a",
      "pbrMetallicRoughness": {
        "baseColorTexture": {
          "index": 3
        },
        "metallicFactor": 0.0,
        "roughnessFactor": 0.0661765
      }
    },
    {
      "doubleSided": true,
      "extensions": {
        "KHR_materials_specular": {
          "specularColorFactor": [
            1.0,
            1.0,
            1.0
          ],
          "specularFactor": 0.0
        }
      },
      "name": "mtl_dog_a_eye_a",
      "pbrMetallicRoughness": {
        "baseColorFactor": [
          0.9127646865209493,
          0.9127646865209493,
          0.9127646865209493,
          1.0
        ],
        "baseColorTexture": {
          "index": 4
        },
        "metallicFactor": 0.894478916507174,
        "roughnessFactor": 0.169118
      }
    },
    {
      "alphaMode": "BLEND",
      "doubleSided": true,
      "name": "mtl_shiny_lense_eye",
      "pbrMetallicRoughness": {
        "baseColorFactor": [
          0.8,
          0.8,
          0.8,
          0.00457144250344382
        ],
        "roughnessFactor": 0.0
      }
    },
    {
      "doubleSided": true,
      "extensions": {
        "KHR_materials_specular": {
          "specularColorFactor": [
            1.0,
            1.0,
            1.0
          ],
          "specularFactor": 0.014706
        }
      },
      "name": "mtl_dog_a_gear_a_cam",
      "pbrMetallicRoughness": {
        "baseColorTexture": {
          "index": 5
        },
        "metallicFactor": 0.0,
        "roughnessFactor": 0.5
      }
    }
  ],
  "meshes": [
    {
      "name": "Object_0",
      "primitives": [
        {
          "attributes": {
            "NORMAL": 1,
            "POSITION": 0,
            "TEXCOORD_0": 2
          },
          "indices": 3,
          "material": 0,
          "mode": 4
        }
      ]
    },
    {
      "name": "Object_1",
      "primitives": [
        {
          "attributes": {
            "NORMAL": 5,
            "POSITION": 4,
            "TEXCOORD_0": 6
          },
          "indices": 7,
          "material": 1,
          "mode": 4
        }
      ]
    },
    {
      "name": "Object_2",
      "primitives": [
        {
          "attributes": {
            "NORMAL": 9,
            "POSITION": 8,
            "TEXCOORD_0": 10
          },
          "indices": 11,
          "material": 2,
          "mode": 4
        }
      ]
    },
    {
      "name": "Object_3",
      "primitives": [
        {
          "attributes": {
            "NORMAL": 13,
            "POSITION": 12,
            "TEXCOORD_0": 14
          },
          "indices": 15,
          "material": 3,
          "mode": 4
        }
      ]
    },
    {
      "name": "Object_4",
      "primitives": [
        {
          "attributes": {
            "NORMAL": 17,
            "POSITION": 16,
            "TEXCOORD_0": 18
          },
          "indices": 19,
          "material": 4,
          "mode": 4
        }
      ]
    },
    {
      "name": "Object_5",
      "primitives": [
        {
          "attributes": {
            "NORMAL": 21,
            "POSITION": 20,
            "TEXCOORD_0": 22
          },
          "indices": 23,
          "material": 5,
          "mode": 4
        }
      ]
    },
    {
      "name": "Object_6",
      "primitives": [
        {
          "attributes": {
            "NORMAL": 25,
            "POSITION": 24,
            "TEXCOORD_0": 26
          },
          "indices": 27,
          "material": 6,
          "mode": 4
        }
      ]
    }
  ],
  "nodes": [
    {
      "children": [
        1
      ],
      "matrix": [
        0.2084713727235794,
        0.0,
        0.0,
        0.0,
        0.0,
        4.628994359458614e-17,
        -0.2084713727235794,
        0.0,
        0.0,
        0.2084713727235794,
        4.628994359458614e-17,
        0.0,
        0.0,
        0.0,
        0.0,
        1.0
      ],
      "name": "Sketchfab_model"
    },
    {
      "children": [
        2
      ],
      "name": "root"
    },
    {
      "children": [
        3
      ],
      "matrix": [
        1.0,
        0.0,
        0.0,
        0.0,
        0.0,
        2.220446049250313e-16,
        1.0,
        0.0,
        0.0,
        -1.0,
        2.220446049250313e-16,
        0.0,
        0.0,
        0.0,
        0.0,
        1.0
      ],
      "name": "GLTF_SceneRootNode"
    },
    {
      "children": [
        4,
        5,
        6,
        7,
        8,
        9,
        10
      ],
      "matrix": [
        0.054215654730796814,
        0.0,
        0.0,
        0.0,
        0.0,
        0.05421564780092547,
        1.8640731877348643e-05,
        0.0,
        0.0,
        -1.8640731877348643e-05,
        0.05421564780092547,
        0.0,
        0.0,
        0.0,
        0.0,
        1.0
      ],
      "name": "fullbody_dog_a_LOD_0_0"
    },
    {
      "mesh": 0,
      "name": "Object_4"
    },
    {
      "mesh": 1,
      "name": "Object_5"
    },
    {
      "mesh": 2,
      "name": "Object_6"
    },
    {
      "mesh": 3,
      "name": "Object_7"
    },
    {
      "mesh": 4,
      "name": "Object_8"
    },
    {
      "mesh": 5,
      "name": "Object_9"
    },
    {
      "mesh": 6,
      "name": "Object_10"
    }
  ],
  "samplers": [
    {
      "magFilter": 9729,
      "minFilter": 9987,
      "wrapS": 10497,
      "wrapT": 10497
    }
  ],
  "scene": 0,
  "scenes": [
    {
      "name": "Sketchfab_Scene",
      "nodes": [
        0
      ]
    }
  ],
  "textures": [
    {
      "sampler": 0,
      "source": 0
    },
    {
      "sampler": 0,
      "source": 1
    },
    {
      "sampler": 0,
      "source": 2
    },
    {
      "sampler": 0,
      "source": 3
    },
    {
      "sampler": 0,
      "source": 4
    },
    {
      "sampler": 0,
      "source": 5
    }
  ]
}
